<svg xmlns="http://www.w3.org/2000/svg" viewBox="0 0 439.1 646.88"><defs><style>.cls-1{fill:#bc9355;}</style></defs><g id="Layer_2" data-name="Layer 2"><g id="Layer_1-2" data-name="Layer 1"><path class="cls-1" d="M21.61,348.67c-5.7,22.72,10.1,38.59,27.74,45.11a59.24,59.24,0,0,0,12.35,3.15,10.84,10.84,0,0,1,9.07,6.4c2.38,4.65,5.61,8.86,8.48,13.26l1.74-.44c.16-4.27.46-8.54.45-12.8,0-2.76,1-3.83,3.79-3.64,28,1.9,53.42-6.59,77.89-19.12a499.64,499.64,0,0,0,67.79-41.24c29.86-21.85,63.35-35.37,99-43.93,11.39-2.74,22.88-5.05,34.26-7.85,3.5-.86,4.52.28,5.22,3.45,1.06,4.81,2.6,9.52,3.93,14.27l1.53.08c1.51-4.8,3.39-9.53,4.46-14.44,1.11-5.13,3.43-8,8.86-9.3,7.38-1.77,13.84-5.32,16.92-13.18,4.95-12.62-2.09-23.34-16.66-24.79L399.63,252c-.28.49-.56,1-.83,1.47l-10.65-3.49-.32.7L399,258.92l-.73,1.3-10-3.59-.25.68,9.88,8.11-.7,1.07-9.95-4.06-.33.68,7.85,6.78-.65,1-7.51-2.22c-.1.23-.2.45-.29.68l5.93,4.8-.46,1.1-4.36-.5c-1.67,1.5-2.61,3.08-3.79,3.27-4.64.76-6.9,3.21-7.09,7.91-.06,1.54-.86,3.06-1.32,4.59H374a39.88,39.88,0,0,1-.92-4.42c-.33-3.41-1.68-5.05-5.38-3.84a38.67,38.67,0,0,1-6.24,1.32c-3.53.54-6-.85-7.83-4.64l9.89.9c.08-.22.16-.44.23-.66L353,273.65l.59-1.44,10.26.83,0-.77-11.76-5.06c-.18,3.52-.1,7.09-.61,10.58-.44,3.07,1.07,7.37-4.54,9,.28-3.47.82-6.15.66-8.8q-1-17.3-2.43-34.56c-.36-4.39-1.23-8.73-1.79-13.1a4.48,4.48,0,0,1,.38-2.57c4.61-8.38,9.42-16.65,13.89-25.1,1.34-2.54,2.9-3.51,5.67-3.32,12.71.83,25.43,1.67,38.15,2.27,6.67.32,13.41.69,20,.06,8.23-.79,12.59-6.29,13.46-15.32.77-7.88-3.29-14.42-10.67-17.05,1.88,2.27,3.7,4.43,5.45,6.64.2.26,0,.82,0,1.69l-5.81-3,6.79,8.24-.88,1-5.15-2.95-.44.37,5.79,7.06-.84.88-6.35-3.49,5.93,7.16-.63.85-4-1.2c.52,1.24,1,2.34,1.48,3.51-3.37.6-6.37,1.19-9.39,1.67-3.71.58-5.35-.67-4.67-4.75.75-4.5,1.07-9.07,1.37-13.63.07-1.21-.64-2.47-1-3.7-1.17.41-2.35.77-3.49,1.24-.83.35-1.59,1.16-2.41,1.2-2.21.11-4.56.29-6.57-.39-.55-.18-.09-3.34-.09-5.18l-4.07,2c.92-2.5,1.48-4,2.08-5.67-3.75,1.82-4.86,3.93-4.21,7.81.73,4.42,2.21,5.13,14.8,6.88-.38,3.95-.65,8-1.27,11.94a3.16,3.16,0,0,1-2.52,1.82,26.66,26.66,0,0,1-6.21-2c-.68-.3-1-1.32-1.41-1.81-1.57.86-2.9,1.59-4.22,2.33-.58-1.48-1.5-2.91-1.68-4.43q-.94-7.92-1.45-15.91a10.49,10.49,0,0,1,5.54-10.26c10.48-6.23,30.4-3.23,38.76,5.65,5.73,6.08,6.39,13.19,4.68,20.86-2.28,10.24-5.1,20.4-6.82,30.74-1.36,8.18-1.52,16.57-2,24.88-.56,9.37-.3,18.84-1.51,28.12-.88,6.7-5.09,12-11.62,14.83a36.08,36.08,0,0,1-5.67,1.44c-.61-3.48,0-5.11,3.32-5.6,2.31-.33,4.46-1.76,6.67-2.7-.18-.48-.37-1-.56-1.43L412,285.14c-1.25-3.07-.35-4.24,2.36-4.86,10.2-2.33,10.44-2.37,11.32-12.84a91.84,91.84,0,0,0-.2-17.31c-1.62-15.19,1.86-29.65,5.63-44.1.23-.85.42-1.72.56-2.32l-24.55,5.14H427c.05.43.09.86.14,1.3-6.21,3.46-13.4,3-20.15,4.89h19.26c-5.8,4.27-12.84,4.35-19.57,6.13h17.65c-5.75,4.44-12.69,4.3-19.28,6.07h17.61c.09.61.18,1.21.26,1.81l-19.44,4-.11.29h19.36c-1.89,1.26-2.58,2-3.42,2.24-7.59,2.2-14.89,3.86-23.08,1-8.56-3-17.79-3.91-26.68-6-3.62-.83-7.11-2.22-10.67-3.35l0-1.33,7.33-2.2c-5.41-2.91-13.36-.87-15.62,4.72,3.83,1.58,7.57,3.63,11.58,4.66,9.12,2.33,18.39,4.1,27.56,6.24a48.69,48.69,0,0,1,9.09,2.93c8.92,4.09,13,11.83,11.56,21.58-1.68,11.45-4,22.83-5,34.34a226.39,226.39,0,0,0-.55,34.54c1.47,20.87-5.59,34.54-25.25,42-13.75,5.2-28.11,9-42.43,12.41-37,8.86-70.05,26-100.77,47.91-21.83,15.6-43.86,30.79-69.2,40.33-15.38,5.79-30.7,11.81-47.28,13.35-20.09,1.86-39-1.65-56.82-11.45-9.73-5.36-15.56-13.35-18.08-24A41.41,41.41,0,0,1,43.68,447c-1.34-16.85-7.59-32.1-14.38-47.33-4.44-10-7.78-20.46-11-30.92C16.22,361.8,16.73,354.72,21.61,348.67ZM92.2,423.14c1.19,3.78,2.86,6.84,3,10a229.44,229.44,0,0,1,0,24.18c-.49,8.72,2.92,18.11-4.4,25.84l.9.7,15.45-8.26c-1.12-3.92-2.46-6.54-2.53-9.2-.25-10.18-.1-20.37-.1-30.57V425.58c5.93-1,7.33-.29,7.63,4.65.45,7.58.4,15.19.48,22.78.07,6.39-.08,12.78.07,19.17.1,3.71,3,5.74,5.57,4s5.06-4.11,7-5.72c-1.4-2.42-3.23-4.11-3.26-5.84-.23-14.27-.13-28.56-.13-42.72,5.44-1.87,7.24-.84,7.6,4.18.16,2.12.07,4.26.07,6.39,0,10.49-.14,21,.12,31.48.06,2.44,1.53,4.85,2.35,7.28,2.27-1.12,4.59-2.13,6.79-3.37,1.7-1,3.25-2.22,4.87-3.35l-2.2-.82c-.8-2.71-2.17-5.4-2.27-8.14-.3-8.5-.11-17-.11-25.54,0-4.11.52-8.31-.19-12.29a13,13,0,0,0-4.34-7.27c-.88-.72-4.23,1-6.12,2.19a78.84,78.84,0,0,0-7.18,5.65c-7.42-8.22-10.69,1.89-16,3.05C99.67,416.19,101.78,416.37,92.2,423.14ZM244.67,348c-4.21,3.16-7.92,6.22-11.9,8.86-5.2,3.44-10.65,6.49-15.91,9.84a19,19,0,0,0-4.47,3.8c-3.42,4.11-2.93,5.43,1.81,7.26l11.05-9.23c-.35,3.85-.78,6.63-.81,9.41-.08,10.19,0,20.39,0,30.58,0,6.71,1.11,13.68-4.6,18.74l16.42-14.86c-1-3.31-2.29-5.58-2.34-7.88-.23-10.19.48-20.43-.29-30.57-.6-7.81,1.85-12.77,9-15.52a3.07,3.07,0,0,0,.39-.23c4-2.17,6-1.34,5.65,3.16-1.3,16.45,3.89,33.43-3.51,49.76l16.41-17.21-1.63-.08c-.64-1.82-1.79-3.61-1.84-5.44-.22-7.6-.34-15.23,0-22.82.36-8.83-2.4-18.18,4.48-26.07l-1.32-.79-11.36,13.05Zm53.49,28.73c-5.51-.58-4.48-4.24-4.52-7.34-.06-5,0-10,0-15.05,0-7.15.32-14.32-.16-21.44-.19-2.67-2.23-5.22-3.42-7.83-2.28,1.12-4.79,1.92-6.76,3.43-2.25,1.74-4,4.11-6.28,6.53-3.06-3.53-5.45-2.13-7.79.83-2,2.49-4.2,4.76-6.32,7.12l1.44-.19c.9,2.53,2.52,5,2.59,7.59.29,11.09.2,22.2.09,33.3a64.25,64.25,0,0,1-.94,11.77c-.48,2.39-2.2,4.53-3.36,6.79l.77.55,15.9-15.19c-1.31-2.46-2.94-4.11-3-5.78-.22-13.54-.25-27.08,0-40.6,0-1.38,2.28-3.25,3.88-3.81.72-.26,3.29,2,3.45,3.33a135.72,135.72,0,0,1,.6,14.55c.07,9.13-.05,18.26.12,27.38,0,1.24,1,3.09,2,3.5s2.87-.34,3.8-1.19C292.82,382.63,295.07,380,298.16,376.7Zm-104.9,43.78c2.37,4.37,4.52,8.88,7.23,13,.79,1.21,4.07,2.4,4.61,1.89,3.44-3.2,6.42-6.89,10.24-11.18-2.08,0-2.67,0-3.26,0-6,.29-7.59-4.5-10-8.48-2.34-3.78.71-5.41,2.54-7.67s4.56-4.41,4.77-6.8a146.47,146.47,0,0,0,0-21.87c-.11-1.68-2.41-3.72-4.19-4.6-.95-.47-3.29.83-4.4,1.94-2.78,2.77-5.21,5.89-6.69,7.61-3.44.22-6.11-.4-7.52.66-2.73,2-4.74,5-6.59,7.1,1.18,2.22,3,4,2.86,5.65-1.17,18.27,3.62,37-3.35,54.69l16-15.9C189.46,431.9,193.45,425.83,193.26,420.48Zm-14.13,25.15c-6.89-2.81-4-8.28-4-12.47s1.33-8.69,2.08-13H174.9c0-6.52.33-12.78-.18-19a9.94,9.94,0,0,0-3.8-6.39c-1-.72-4.16.58-5.73,1.78-4.69,3.61-9,7.71-13.61,11.43a8.28,8.28,0,0,0-3.32,7.47,125.15,125.15,0,0,1,0,16c-1.11,12.84,3.51,26.27-3.43,38.93l15.4-13.44c-1.18-3.51-2.3-5.69-2.58-8a73,73,0,0,1-.09-9.12c0-6.3,1-7.4,8.12-8.83v5c0,5.17-.12,10.35.11,15.52.05,1.24,1,3.09,2,3.47s2.92-.34,3.85-1.21C174.15,451.38,176.36,448.68,179.13,445.63ZM341.75,360.2c.91-2.68,1.35-4.12,1.88-5.52,4.92-12.92,9.54-26,14.93-38.7,2.6-6.13.39-10.36-2.3-14.14l-11.21,3c-4.71,1.23-10.23,1-12.64,7.14l4.65,5c0-.52,0-1.05.07-1.57l13.5-4.21.82,1.4c-.58,1.53-1.14,3.06-1.74,4.58-5.42,13.87-10.77,27.77-16.31,41.59a11,11,0,0,0,.5,10.28c6.59-1.09,13-1.95,19.39-3.31,2.52-.54,4.81-2.2,7.8-3.64-2.43-3-4-4.88-5.55-6.78l-.23,1.37Zm-15.32,5.16c-2.09.44-3.66.73-5.22,1.1-6.78,1.62-8.85.08-9.23-7-.12-2.28.13-4.58-.14-6.84-.44-3.77.85-5.82,4.68-6.92,2.62-.75,4.88-2.75,7.3-4.19-.25-.48-.51-1-.77-1.43-1.66.57-3.32,1.16-5,1.7-1.86.58-3.73,1.11-5.62,1.68-1.48-8.55-.78-20.24,1.81-23.17l5.27,11.62,9.89-8.11a59.22,59.22,0,0,1-4.2-6.48c-1.08-2.26-1.63-4.77-2.73-8.16-6.59,5.11-12.63,9.65-18.46,14.44-.94.77-1.28,2.69-1.29,4.09-.09,13.23,0,26.47-.08,39.7,0,4.17,2,6.46,5.77,7.66C313.34,376.62,321.53,372.45,326.43,365.36Zm-260,94.22c-5.59-4.17-12.11-6.5-16.42-12.2l16.28,5.19c-5.66-4.19-12.6-6-17-11.79l17.05,4.59c-6.27-4.06-13.72-5.6-20-12l19.11,4.46c-6.15-3.72-13.32-4.88-18.37-10.41l15.51,3.2.2-1.1c-6.31-2.2-13-3.7-17.78-9.15l13.28,2.84.15-.76-17.12-7.62c2.27,11.57,4.58,23.83,7.09,36.06,1.88,9.13,8.08,14.2,18,14.89L51.53,456l.73-1.2ZM363.65,253.31c-4.07-3.37-9.51-3.44-13.18-8.65l12.24,1.58v-.84l-12.5-6,.65-1.53,12.6,1.88c.05-.25.09-.49.13-.74l-16.48-7.63c1,6.29,2,12.09,3,17.86a2.8,2.8,0,0,0,1.66,1.89C355.72,252,359.69,252.62,363.65,253.31ZM50.8,407.15c-6.26-3.55-13.3-5.86-18.42-12.83l19.3,7.37L28.06,386.18C30,398.63,38.49,406.85,50.8,407.15Zm4.65,8.2-19.72-9.87C39.86,414.81,48.58,413.49,55.45,415.35ZM350.94,253.41c.19,4.86,5.17,7,13,5.58Zm36.16,70.45c7.39.88,13.3-2.69,11.65-6.63Zm-23-58-12.51-5.46C351.64,265.16,355.55,266.9,364.15,265.82Zm-9.52-45.08,12.4-3.55C360.32,214.69,356.7,215.72,354.63,220.74Zm33.31,109.59c9.13-.19,12.71-2.46,11.25-6.45Zm-1.09-12.91c10.57-.72,12.93-2.06,12.24-6.36Zm2.4,19.61c8.8-.43,12.15-2.78,10.52-6.78ZM55.12,464.55c2.5,5.42,7.06,7.6,12.67,8.12ZM390.43,343.42c7.49,0,11.3-2.72,9.8-6.65Zm.16,6.81c10.33-1.56,11.77-2.82,9.69-6.85Zm3.19-65.64c7.78-.08,10.15-1.66,9.72-6.13Zm5.5,65.61-8.91,6.69C395.51,357.55,399,356.52,399.28,350.2ZM402.82,285l-10,6.16C400.81,290.75,402.49,289.67,402.82,285Zm-1.91,13-10.5,6.1C397.65,304.06,400.36,302.54,400.91,298.06ZM390,310.48c7.35.23,10.15-1.56,9.81-5.94Zm11.66-18.79L391.27,298C400.1,297,401.62,296.08,401.69,291.69Z"/><path class="cls-1" d="M341.87,390.55c1.75.1,3.64-.19,5.22.37,5.05,1.79,8.88,5.33,9.77,10.59,1,5.93,2,12.22,1.1,18.05a219.71,219.71,0,0,0-.71,61c1.29,10.57-2.72,18.62-11.48,24-5.64,3.48-11.89,6-18,8.57-1.16.48-3.83-.63-4.65-1.81-2.62-3.71-4.68-7.82-7-11.76a7.83,7.83,0,0,0-3.31-3.24c-.89,4.82-2.3,9.6-2.55,14.45-.32,5.93-2.48,9.22-8.19,11.88-27.82,12.94-53.16,30.14-78.47,47.31-19.41,13.16-39.76,24.49-62.92,29.19-10.45,2.13-21.4,2.36-32.12,2.4-8.46,0-12.93-5.42-13.3-14.26-.62-15-3.2-29.68-9.64-43.37-3-6.44-6.93-12.47-10.49-18.66-3.86-6.72-5.69-13.49-.87-20.56,5.33-7.81,13.87-12,23.27-10.49a55.41,55.41,0,0,0-5,2.43c-3.44,2.17-7.28,4-10.1,6.8-4.41,4.4-2.92,9.21,3,11,16.54,5.13,33.1,3.73,49.58-.28,24.3-5.91,45.87-17.55,66.4-31.52,26-17.72,52.15-35.43,81.14-48.13,10.55-4.62,21.73-7.81,32.49-12a48.1,48.1,0,0,0,12.38-6.6c8.76-6.91,7.55-16.89-2.25-22.14l-3.45-1.87ZM223.51,501.7l1.87,1c.67,2,1.88,4.08,1.91,6.14.19,11.87,0,23.75.16,35.62.05,3.57-1.86,5.23-4.79,5.44-3.69.27-3.27-3.06-3.33-5.27-.19-7-.09-14-.1-21,0-6.24.07-12.48-.1-18.72a4.38,4.38,0,0,0-1.65-3.32,3.85,3.85,0,0,0-3.57.72c-2.84,3.05-5.38,6.39-8,9.62l1.67-.07c.83,2,2.32,4.06,2.38,6.11.25,9.89.11,19.79.11,29.69,0,3-.4,6.16.15,9.11.4,2.14,1.62,4.82,3.32,5.79,1.08.62,4.07-1,5.54-2.39,2.65-2.45,4.79-5.43,7.15-8.19,2.38.62,5,.93,6.26-.24,3-2.73,5.28-6.17,7-8.23-1.21-3.37-2.69-5.66-2.74-8-.23-12.64-.13-25.27-.07-37.91a29.72,29.72,0,0,1,.82-4.76l3.63,1.52,11.2-9.63c-.29,3.93-.64,6.61-.66,9.29-.07,9.44,0,18.88-.05,28.32-.05,7.44,1.32,15.17-4.52,21.6l1.21.6,16.38-17.49-1.9-.36c-.64-1.8-1.8-3.59-1.83-5.4-.18-10.2.51-20.45-.29-30.59-.64-8.17,1.61-13.72,9.23-17,1.48-.63,2.68-1.93,4.12-3l3.66,2.05c3.38-4.88,7.91-7.43,14.37-7.86-.72,2-1.26,3.54-1.81,5.07-5.45,15.18-11,30.32-16.25,45.58-1,3-.73,6.55-1.09,10.37,8-2.89,14.73-5.08,21.25-7.83,2.29-1,4.8-3,5.68-5.16.47-1.17-2.28-3.66-3-4.78L282,514.89c1.08-3.35,1.62-5.22,2.28-7.05q7.44-20.85,14.94-41.69c1.86-5.17.74-9-3.26-12.22l-22.47,10.88L271,463.54c-2.6,2.41-4.7,4.86-7.27,6.63-6.64,4.58-13.84,8.39-20.15,13.36C236.48,489.1,230.16,495.61,223.51,501.7Zm-26.63,9.64c-5.6,3.71-10.87,7.29-16.23,10.72a7,7,0,0,0-3.64,6.7c.19,12,.08,24,.08,36,0,4.7,1.42,8.85,5.69,11.2,1.67.91,4.55,1.61,5.88.79,4.39-2.71,8.32-6.17,12.43-9.34l-.79-1.35c-1.65.5-3.3,1-5,1.5-4.86,1.31-7.6-.39-8.55-5.33a22.41,22.41,0,0,1-.4-4.09c0-10.64-.07-21.28,0-31.93,0-1.39.77-2.78,1.18-4.17L189,522l5.21,11.72,9.53-11C198.09,521.62,200.1,515,196.88,511.34Zm-76.09,62.2.36-2.15h16.77l0-.64-18.12-3.46c.09-.67.17-1.34.26-2h18.57l0-.72-21.29-3.69c.83,9.61,1.53,19.42,2.64,29.17a7.63,7.63,0,0,0,3.22,5.13c4.38,2.48,9.21,1.72,13.87.75l-13.7-4.15.35-1.56h13.93v-.44l-14.89-4.08.4-1.85H136.9l-.05-.56-15.19-3.75.34-1.87h15.16V577ZM96.17,518.26c4.08,6.67,7.8,12.74,11.54,18.81a1.11,1.11,0,0,0,.71.52q8.27.51,16.53,1l.1-1.37c-6.32-1.37-13.15-1.21-18.4-6h14.26c-6.2-2.26-13-2.16-18.25-6.93h14.2ZM350,450.74l-13,8c.12.27.24.54.37.81l11.44-3.78c.24.49.47,1,.7,1.47L335.8,466C348.06,464.83,352,460.5,350,450.74ZM114,553.76c1.23,1.81,2.14,4.44,3.17,4.49,7.42.36,14.86.19,22.29.19v-.27Zm-2-6.65c1.1,2.55,1.14,5.1,5,4.66,2.66-.3,5.42.36,8.14.46s5.57,0,8.36,0l-.13-1.24Zm-2.26-6.75L109,541c1.16,1.22,2.22,3.37,3.5,3.51,5.91.65,11.89.74,17.85,1,0-.35,0-.71,0-1.07ZM342,496.26l.27.78,5.77-1.43.52.89-7.41,5.81c7.84-1.47,11.48-6,10.47-12.51Zm-4.05-25.18c8,.24,13.77-3.36,12.3-7.18Zm.86,6.85c10.7-1.7,13.66-3.74,12.07-7.47Zm1.81-51c10.7-2.15,13.22-4.13,12-8.64Zm9.47,17.69L337.31,453C346.5,451.64,350.58,448.86,350.08,444.64Zm1.27-12.81-13,8.4C348.38,438.19,351.12,436.4,351.35,431.83Zm-12.52,14.1c9.67-1.67,12.11-3.37,11.54-7.56Zm.88,38.65c8.77-1,12.77-3.72,11.82-7.6Zm12.65-1.33-11.68,7.88C348.92,490,352.43,487.64,352.36,483.25ZM340.63,433c7.38-.48,11.68-3.48,11.1-7.56Z"/><path class="cls-1" d="M265.55,289.64l-3.37,8.05-1.62-.59c.93-2.87,1.76-5.77,2.8-8.6,17-46.18,38-90.56,59.68-134.67,16.48-33.57,33.36-67,50.13-100.38,3.14-6.27,4.29-6.77,11.18-5.68,11.89,1.89,21.46,8.21,29.88,16.39,1,1,1.27,3.74.65,5.14C406.34,88.62,398,108,388.81,127.07c-14.39,30-29.41,59.72-43.95,89.66-3.13,6.44-7.77,10.64-14.66,11.65A108.39,108.39,0,0,1,309,229.89c-4.24-.22-6.25.39-7.79,4.41-7.52,19.58-15.28,39.08-23,58.6-.53,1.33-1.19,2.6-1.79,3.9l-1.16-.44q2.12-6.21,4.25-12.43l-.7-.4c-1.47,2.25-2.89,4.55-4.43,6.75C270.57,295.8,268.93,295.74,265.55,289.64ZM302,205.41l-.52-.39-14.24,31.64c2.48-1.75,3.8-4.15,5.57-6.16,1.18-1.33,3-2.11,4.53-3.14.39,1.66.78,3.33,1.21,5,.05.18.39.28.6.41l-.68-1.12,11.33-6.91c-2-1.82-6.1-3.94-7.48-7.21C300.84,214.05,302,209.49,302,205.41Zm32.14-66-1.14-.6q-7.53,15.41-15.07,30.82l1,.49Zm44.62-88.49-1.22-.79q-4.15,7.55-8.29,15.09l.95.54Q374.44,58.31,378.73,50.89Z"/><path class="cls-1" d="M161,296c1.62,9,3.11,17.31,4.61,25.62.28-.16.72-.27.74-.44,1-7.63,1.7-8.61,9.63-3.88,4.46,2.66,8.64,5.79,12.95,8.71l-.74,1.21-8.39-3.92c10.22,7.63,20.34,15.19,22.35,29.24-4.16-10.14-9.2-19-21.85-11.37-7.66,4.64-7.46,13.69-.23,25.1l-11.63,5.92c-.39-2.29-.75-4-1-5.73-1.9-16.94-3.56-33.91-5.72-50.81-2.25-17.66-8.55-34.14-15.07-50.59-7.12-17.94-14-36-20-54.36-3.93-12.06-10.42-20.61-22.08-26.21-9.5-4.56-19.06-10-26.78-17.07C57,148.34,53.31,124.5,62.48,98.48,65.91,88.76,71.1,79.67,74.79,70,81,53.88,78.93,39.11,65.47,27.2c-5.79-5.12-12.08-9.67-18.16-14.46-1-.75-2.09-1.28-3-2.08-2.47-2.16-4-4.76-2.31-8S46.73-.25,49.63.55a16,16,0,0,1,4.19,1.78C69.69,12.2,82.73,24.58,89.19,42.72q1.38,3.87,3,7.66c2.89,6.9,7.8,11.46,15.22,13.21,3.69.88,7.33,2,11,3C138,71.94,149.18,85.23,154,104.4c4.78,18.84,1.23,36.48-8.06,53.25-2.5,4.52-4.77,9.18-7,13.85a42.59,42.59,0,0,0-2.8,30.71c5.2,18.32,11.58,36.22,20.34,53.21,6.75,13.11,16.78,23,29.12,30.8,5.28,3.32,10.67,6.48,15.78,10,1.67,1.16,3.59,3.28,3.75,5.11,1.34,15.16,2.31,30.35,3.34,45.54,0,.66-.33,1.35-1.55,2.23a24.15,24.15,0,0,1-1.11-4.16c-1.16-13.81-2.33-27.61-3.27-41.43a6.22,6.22,0,0,0-3.53-5.74c-3.73-2.05-7.2-4.57-10.9-6.68C165,278,152,257,143.36,232.68c-3.49-9.89-7-19.79-9.94-29.86a42.64,42.64,0,0,1,3.11-31.95c4.66-9.22,9.78-18.28,13.65-27.83,5.76-14.19,5.69-28.89.68-43.34-6.59-19-20.72-29.39-40.06-32.31-11.91-1.8-19.11-8-22.5-19-5.46-17.77-17-30.7-32.16-40.67-2.71-1.78-5.94-2.76-8.93-4.1l-.93,1.68A22.82,22.82,0,0,0,49.85,8.1c19.51,10,31,26.24,37.34,46.78,3.7,11.92,9.24,15.91,22.08,16.33,11.79.38,21.74,4.6,29.22,13.68,10,12.16,12,26.68,10.73,41.78-1.11,13.47-6.82,25.2-15.28,35.54-4.71,5.76-6.42,12.3-6.57,19.47-.32,14.78,4.26,28.57,9.26,42.12,4.94,13.4,10.44,26.64,16.42,39.61,6.65,14.42,18.41,24.42,31.34,33,6.08,4.05,10.46,9.22,12.43,16.31,1.35,4.88.21,6.36-4.48,4.68-11.35-4.06-22.52-8.6-29.49-19.41A19.81,19.81,0,0,0,161,296ZM146.58,116.41a115.24,115.24,0,0,0-2-12.46c-7-28.08-34.67-37.7-57.53-20.1-16.55,12.74-24.2,37.82-17.57,57.64,8.33,24.89,39,33.87,59.24,17.26C141.27,148.47,146.32,134.71,146.58,116.41ZM81.23,84.68l-1.12-1.14C76.87,87,72.84,90,70.54,94c-11.36,19.76-11.75,40-.43,59.86,5.47,9.6,14.14,15.35,25.34,16.75a19.78,19.78,0,0,0,3.82-.47C59.81,160.12,55.85,110.12,81.23,84.68Zm74.65,195.58c1.82,10.91,11.66,12.57,18.32,17.55C168.24,292.09,162.27,286.38,155.88,280.26Zm-49-98L121,191.62C119.1,186.18,114.76,183.29,106.83,182.28ZM75.66,76.05l1.46.44L81.85,60.8l-1.35-.4Z"/><path class="cls-1" d="M210.61,306.42l-11.47-19.18.9-.65,6.6,8.07c.88-6.29,1.17-11.89,2.49-17.24,4.25-17.26,8.84-34.45,13.36-51.65,2.08-7.94,4.37-15.83,6.45-23.78,2.86-10.92,9.09-19.4,18.14-26.05,6.74-4.95,13.46-10,19.88-15.31,23.34-19.48,31.49-44.84,27.51-74.32-1.93-14.25-9.48-25.18-22.7-31.68a30.44,30.44,0,0,0-2.94-1.24,27,27,0,0,0-2.74-.59,32.71,32.71,0,0,0,2.82,2.39c20.8,13.12,25.87,32.75,22.46,55.54-4,26.92-21,44.07-43.82,56.59-3.6,2-7.22,3.91-10.81,5.91-5.1,2.85-7.71,7.23-9.13,13-5.73,23-11.75,45.94-17.8,68.86A154,154,0,0,1,204.33,272a25,25,0,0,1-5.24,8.35c-6.07,6.13-7.23,6-14.11.69a13.83,13.83,0,0,0-2.7-1.18,11,11,0,0,1,1.35-2.46C201.15,260,208.92,238,214.18,214.65c.87-3.86,1.43-7.78,2.3-11.64,4.23-18.78,1.39-36.5-7.33-53.56-4.35-8.52-8-17.38-11.86-26.15a17.62,17.62,0,0,1-1.29-5.76c-.2-2.66-1.24-4.15-4-4.68-4.71-.92-5.39-4.47-4.82-8.41s1.76-7,6.81-6.9c1.19,0,3-2,3.57-3.51a75.37,75.37,0,0,1,32.78-40.28c26.12-15.72,59.7-1.56,66,28.44,6.19,29.57-1.24,55.92-23.55,77.08a181.34,181.34,0,0,1-21.32,17.14c-10.62,7.36-17.56,16.74-20.8,29.4-4.7,18.42-10.67,36.52-15.21,55-3,12.07-4.55,24.5-6.24,36.85-.37,2.66,1.47,5.63,2.29,8.45Zm-3.28-193.71a58.17,58.17,0,0,0,6.18,23.74c11.31,22.79,36.67,28.8,55.06,11.93,17.69-16.23,24.89-37,19.37-60.82C283.18,67,263.84,56,243.42,61.22,222.47,66.57,207.34,87,207.33,112.71Zm53.56-55.79a11.59,11.59,0,0,0-1.66-.64c-14-3.2-26.17,1-37,9.63-9.59,7.63-15.49,17.89-19.33,29.34-1.34,4-3.23,6.47-7.8,5.82-.6-.08-1.26.3-2.69.67,6.75,4.05,8.9,9.78,9.18,16.54a28.67,28.67,0,0,0,1.18,5.81c3.65,13.85,9.79,25.94,23.4,32.64a15.92,15.92,0,0,0,2.51.78c-22.54-14.55-28-43.71-21.43-64.08C213.17,74.86,233.91,53.91,260.89,56.92ZM222.1,183.3c.87-8.69.08-16.69-4.76-23.72C218.89,167.29,220.45,175.09,222.1,183.3Z"/><path class="cls-1" d="M27.85,262.53c-15.47,0-27.2-11.76-27.83-27.9-.68-17.83,13.85-36.74,31.3-40.72,21.74-5,39,11.2,35.46,33.24C63.64,246.79,46.33,262.52,27.85,262.53Z"/><path class="cls-1" d="M142.39,385.42l-3.65-3.11c-6.52,9.72-17.43,8.91-26.81,11.6-2.87.83-6,.79-8.62,1.11-3.45-7.42-6.74-14.47-10.17-21.82-4.09,3.49-5.94,6.54-2.74,11.2,2,2.88,3.06,6.41,4.54,9.65l-1.34.69-6.55-12.85-3,4.19c-5-4.17-8.22-15.74-6.79-21.79.59-2.48-.55-5.38-.9-8,.7,1,1.57,2.29,2.43,3.54,5.14-4.07,5.47-5.3,2.82-10.88-2.26-4.75-4.54-9.5-7.32-15.31-3.25,5-5.94,9.1-8.63,13.22-6.12-4.56-6.48-11-.86-15.61,1.29-1.06,2.8-1.87,4-3a11.15,11.15,0,0,0,1.61-2.83,29.92,29.92,0,0,0-3.14,0c-.53,0-1,.4-1.71.18,15.15-10.89,31.54-18.75,50.54-20.21l-22.82,6.73c3.44,7.56,6.49,14.27,10.07,22.16L115.9,318c1.51,3,3,5.9,4.62,9.21l1.41-.49c-.3,1.41-.56,2.67-.88,4.18l2.69-.76c-5.09,11.87,4.82,19.33,7.45,29.78l3.56-3.87,1.43,3.78,1-.28c-.54,1.55-1.07,3.11-1.8,5.21l3.15-2c-.28,1.57-.5,2.79-.74,4.11l2.67-.49-1.64,4.81,2-1C141.3,374.84,141.8,379.68,142.39,385.42Zm-21.14-12c2.85-3.34,5.17-5.91,7.3-8.64.69-.87,1.51-2.41,1.18-3.18-2.69-6.27-5.64-12.44-8.72-19.09-3,3.6-5.48,6.44-7.76,9.42a3.39,3.39,0,0,0-.51,2.82C115.33,360.68,118.1,366.55,121.25,373.4ZM93.59,345c2.53-3.17,4.45-5.42,6.15-7.82a3,3,0,0,0,.08-2.52c-3.29-6.82-6.69-13.58-10.37-21l-8.34,4.71.84,1.7,6.7-2.48.69.92a32.71,32.71,0,0,0-3.56,3.71c-.7,1-1.53,2.63-1.16,3.49C87.18,331.67,90.05,337.5,93.59,345Zm11.5,14.39c-1.14,2.29-2.55,3.84-2.21,4.65,2.61,6.16,5.55,12.18,8.39,18.24l1.38-.14c.46-1.24,1.65-2.79,1.28-3.68C111.34,372.42,108.43,366.5,105.09,359.4Zm3.54-3.31c-.12,1.53-.76,3.26-.26,4.55,1.37,3.51,3.19,6.86,4.88,10.25,1.09,2.18,2.26,4.33,3.51,6.71C119.65,374.27,116,364.07,108.63,356.09Z"/><path class="cls-1" d="M284.88,412.83l9.91-.56.19-.63-5.33-1.77-.08-1.59,10.64-1.23-1.67-2.56c11.39-3.1,21.29-10.1,33.45-9.46,5.45.28,10.72,1.38,14.22,6.66l-10.75-3.16-.23.63,10.53,7.16-.75,1.27-9.72-2.8-.24.68,9.12,6.16-.73,1.42-8.06-1.76-.28.61,4.37,3.17a10.87,10.87,0,0,1-2.28,1.75c-15,5.83-30.08,11.59-45.1,17.42-4.9,1.9-7.13-.43-7.78-5.48-.4-3.15,3-6,.16-9,.8-.7,1.51-1.76,2.44-2,1.34-.34,2.84-.09,4.35-.75l-6.55-2.23Z"/><path class="cls-1" d="M285.44,616.53c-.91,4.64-1.54,12.16-3.92,19.09-4.25,12.37-16.58,14.88-26.23,5.89-7.85-7.32-11.76-16.86-14.67-26.89-1.23-4.23-2.07-8.57-3.15-12.84-.7-2.81-.1-3.95,3.2-4.25q19.25-1.74,38.4-4.26c3.06-.4,4.26.31,4.52,3.18C284.11,602.2,284.65,608,285.44,616.53Zm-4.78-20.32c-4.49.88-8.51,1.57-12.47,2.5-1.74.4-4.88,1.58-4.81,1.93.67,3.58.87,9,3.14,10.14,3.71,2,4.46,4.53,4.39,7.49-.19,8-.94,16-1.42,24,0,.44.45.92.72,1.42,6.46-2.28,9.1-7.35,10.38-13.14C283.09,619.26,282.48,607.94,280.66,596.21Zm-37.94,4.53-2.6.7q3.93,13.21,7.85,26.43l1.45-.43Q246.08,614.09,242.72,600.74Zm26.79,18.07c-2.64,2.89-4.67,6.29-7.78,3.08-1.15-1.19-1.53-4.51-.7-6,2.45-4.27,5.24-.91,7.89.55-1.53-2.77-3.29-5.12-6.75-3.69-3.12,1.29-4,4-3.5,7.14a5.24,5.24,0,0,0,5.75,4.7C267.42,624.57,268.8,622.68,269.51,618.81Z"/><path class="cls-1" d="M124,300.19C94,303.77,68.64,315.48,46.83,336.81c-2-4.4-4.26-8.77-5.83-13.36-.43-1.24.82-3.7,2-4.75,6-5.13,11.75-10.62,18.36-14.77,13.45-8.44,27.87-15,43.68-17.71,11.27-1.93,12-1.3,16.71,8.89C122.53,296.72,123.21,298.35,124,300.19Zm-9.59-1.31c-1.54-3.29-2.72-6.24-4.3-9-.54-.93-2.2-2-3.13-1.81-5.27,1-10.47,2.33-14.89,3.36,1.32,4.68,2.43,8.63,3.54,12.58ZM46.16,318.52c-3.95,4.67-3.47,7.12,2.07,14.81C53.1,327.41,46.36,324,46.16,318.52Zm72.73-19.24,1.4-.88c-.79-5.55-3.37-9.51-7.05-9.86C115.25,292.35,117.07,295.81,118.89,299.28Zm-59.2,7.51,5.68,12.31C67.05,316.52,63.76,308.77,59.69,306.79ZM49.1,315.63c-.93,4.31,2.1,10.2,5.81,11.75Z"/><path class="cls-1" d="M107.88,275.7C81.39,281,59,291.71,39.2,307.85c-3.54-9.14-.16-22.46,7.14-28A92.35,92.35,0,0,1,83,263.16c4.59-1,8.61-.46,12.31,2.79S102.89,271.87,107.88,275.7ZM80,266.1l8,12.61,7-2.26C88.9,267,85,264.45,80,266.1ZM43.46,287l-1.92-.17V303.1C44.35,298,42.73,292.37,43.46,287Zm3.23-4-.94-.08.85,15.77,1.19.36c.77-1.08,2.35-2.31,2.18-3.21C49.14,291.45,47.83,287.21,46.69,282.94Zm43.82-18-.89,1.23c3.91,2.93,6.37,7.87,11.55,9.05l1-1.43Z"/><path class="cls-1" d="M167.05,500c6.09-9.09,17.48-13,18.26-24.84,2.42,1.27,2.42,1.27,4.85-5.41,2.78,6.26,5.8,11.34,7.09,16.83.52,2.21-2.07,6.69-4.36,7.77-10.37,4.92-21.15,9-31.76,13.39-2.65,1.1-4.19.32-5.35-2.3a88.85,88.85,0,0,0-8-14.79c1,6.55,5.05,12.07,6.4,18.58-5.55-3.19-5.56-10-9.77-14.72l-5.31,9.06c-2-3.66-3.82-6.79-5.32-10.08-.21-.46,1.05-2.15,1.91-2.45,7-2.42,14.11-4.76,21.26-6.79.93-.26,2.91,1.12,3.53,2.23C162.65,490.39,164.47,494.57,167.05,500Z"/><path class="cls-1" d="M7,266.38c2.27,2.13,4.33,4.56,6.85,6.35a123.48,123.48,0,0,0,12.7,7.92c5.38,2.91,9.63,3.06,15.09-2,11.88-11,26.6-17.39,42.76-19.93,4-.64,4.41-1,5.4-5.69-2.41,0-5.58,1-7.21-.23a12.23,12.23,0,0,1-4.55-7.41,30.17,30.17,0,0,1,.73-12.48c2.22-7.44,6.34-8.76,13.57-4.69-3.68-18.47-14.64-30-31.11-37l.61-1c3.44,1.44,7,2.56,10.28,4.37a50.13,50.13,0,0,1,21.73,62.33c-1,2.53-2.25,3.55-5.26,3.8a76.83,76.83,0,0,0-50.26,23.87c-.94,1-2.58,2.3-3.51,2.05C23,283.44,13.4,277.13,7,266.38Z"/><path class="cls-1" d="M292.26,563.86c-.48-2.9-.9-4.93-1.15-7q-1.08-9-2.05-18.12a6.93,6.93,0,0,1,6.38-7.65,3.88,3.88,0,0,1,2.64,1.85c4.19,6.87,8.33,13.77,12.27,20.79.47.83,0,3.2-.61,3.46C304.19,559.53,298.51,561.53,292.26,563.86Z"/><path class="cls-1" d="M41.49,316.83l-3.06-.69c-4.56,3.47.2,6.56.24,10-5-2.73-6.27-6.53-2.72-10.36A94.7,94.7,0,0,1,51.8,301.52c16.9-11.45,35.23-19.86,55.63-23a29.73,29.73,0,0,1,8.16,0c4.65.59,6.09,2.83,5.52,9.11-1.64-2.95-2.82-5.05-4-7.16l-1.45-.62c-.43,1.5-.87,3-1.28,4.43-5.72-5.16-13.62-4.22-17.49.66-.74.94-2.36,1.21-3.59,1.75-10.28,4.55-20.53,9.15-30.86,13.58-1.78.77-3.86.85-6.45,1.38.13,5.29-6.33,6.08-9.49,9.83-.17.2-.62.4-.8.31C39.54,308.83,42.38,314.13,41.49,316.83Z"/><path class="cls-1" d="M214.2,630.8c-1.38-6.77-2.79-13.53-4.12-20.31-1.18-6-2.27-11.93-3.38-17.89-1.24-6.65-1.23-6.65,5.77-9.14q.33,5.67.64,11.29l.59.06,1-13.92,1.49.15V630.6Z"/><path class="cls-1" d="M255.09,593.21c-5.27,0-10.55.15-15.8-.15-.95,0-2.39-1.84-2.6-3-1.11-6.29-2.55-12.64-2.48-18.95,0-2.51,3.66-5,6.32-7.19,3.85,10.52,1.47,23.49,15.37,28Z"/><path class="cls-1" d="M190.46,342.75c-1.59,3.95-3.05,7.54-4.5,11.14l.9.59,7-9.32c4.24,4.44,4.76,7.94,1.3,11.68a35.22,35.22,0,0,0,.67-4.51,18.12,18.12,0,0,0-.56-3.29l-1.15-.05a38.78,38.78,0,0,0-.86,4.07c-.55,5.3-5.36,7-8.47,10.15-.26.26-1.17,0-1.7-.16-4.17-1.51-6.7-8.74-4.9-13.91C180.08,343.74,184.69,341.11,190.46,342.75Z"/><path class="cls-1" d="M279.36,306.86l-10.14-6.31c-.58,1.18-.88,1.49-.81,1.68,2.78,8,2.8,8-5,11.91-4.1,2-8.25,4-12.67,6.08-.1-.54-.45-1.2-.26-1.54,3-5.26,5.48-10.95,9.25-15.59C265.6,295.89,276,297.83,279.36,306.86Z"/><path class="cls-1" d="M125.21,315a37,37,0,0,1,2.17,3.55q13.4,28.17,26.73,56.37A7,7,0,0,1,155,377a8.16,8.16,0,0,1-.44,2.38,6.4,6.4,0,0,1-2.21-.92,8.32,8.32,0,0,1-1.27-2.4q-13.25-28-26.46-56a23,23,0,0,1-1.07-4.46Z"/><path class="cls-1" d="M170.05,602.53l9.47-4-4.9,34.16-1.86,0Z"/><path class="cls-1" d="M57.14,346.5c3.4,1.5,23.16,41.08,24.51,48.94-1.67-1.27-3.08-1.8-3.55-2.78-7.06-14.6-14-29.26-20.93-43.92C57,348.28,57.14,347.62,57.14,346.5Z"/><path class="cls-1" d="M230.1,470.61c0-8.33-.24-16.3.2-24.23.09-1.64,2.72-3.14,5.07-5.67a40.47,40.47,0,0,1,.57,4.71c-.12,5.91-.58,11.82-.42,17.71C235.64,467.13,234.07,469.38,230.1,470.61Z"/><path class="cls-1" d="M281.14,588.87c-4.19-5.19-8.47-42.76-5.46-46.06C277.55,558.6,279.34,573.73,281.14,588.87Z"/><path class="cls-1" d="M270.89,419.35c0,3.51,0,6.59,0,9.68,0,4.56.17,9.14-.19,13.67-.12,1.53-1.66,2.95-3,4.11C265.35,429.86,266.23,422.07,270.89,419.35Z"/><path class="cls-1" d="M300.93,258.61l-17,44.84C282.39,299.48,295.32,266.09,300.93,258.61Z"/><path class="cls-1" d="M221.57,475.49c-.32-7.58-.76-15.16-.81-22.74,0-1.05,1.94-2.11,3.19-3.37v26.19Z"/><path class="cls-1" d="M214.46,456.44c2.71,9.34,2.28,23-.66,25.09C211.33,476.37,211.59,458.43,214.46,456.44Z"/><path class="cls-1" d="M126.25,492.62c3.23.81,8.83,10.75,11.08,19.1C134.41,512.25,127.58,500.68,126.25,492.62Z"/><path class="cls-1" d="M105.52,506.39c3.11-5.89,9-8.3,14.64-10.86.46-.21,1.42.69,2.15,1.07-.46.8-.73,2-1.42,2.34C115.81,501.51,110.65,503.92,105.52,506.39Z"/><path class="cls-1" d="M284.88,539.89q2.6,22.75,5.2,45.51l-.69.08q-2.79-22.8-5.59-45.59Z"/><path class="cls-1" d="M203.86,483.81c-.88-.7-2.12-1.21-2.6-2.12-2-3.76-3.78-7.61-5.43-11.51-.35-.82.22-2,.37-3.07.77.56,1.87.94,2.25,1.69,2.32,4.56,4.47,9.2,6.67,13.81Z"/><path class="cls-1" d="M240.21,440v23.73h-1.05V439.9Z"/><path class="cls-1" d="M421.42,239.29c-5.8,4.45-11.87,4.88-15.26,1.21Z"/><path class="cls-1" d="M111.39,507c3.5-2,7-4.06,10.53-5.88.59-.3,1.74.49,2.62.78-.49.8-.79,2-1.49,2.32-3.6,1.51-7.3,2.78-11,4.13Z"/><path class="cls-1" d="M82.4,220.15c-1.55-2.07-3.21-3.32-3.11-4.41s1.83-2.27,2.85-3.39c1.1,1.05,2.9,2,3.1,3.19S83.83,218,82.4,220.15Z"/><path class="cls-1" d="M274.38,440.55V419.87h.3v20.69Z"/><path class="cls-1" d="M411.21,245.77l10.62-1.11C419.13,248.67,413.7,249.49,411.21,245.77Z"/><path class="cls-1" d="M279.34,419v18.86l-1,0C278.72,430.94,279.07,424.08,279.34,419Z"/><path class="cls-1" d="M422,274.6l-9,4.25C412.74,274.42,414.72,273.44,422,274.6Z"/><path class="cls-1" d="M282,562.11q-1.12-9.93-2.27-19.86l.94-.12L282.91,562Z"/><path class="cls-1" d="M422,268.81l-8.24,3.74c-.48-4.18-.38-4.24,7.67-4.85Z"/><path class="cls-1" d="M421.87,263.1c-1.93.87-3.83,1.86-5.83,2.54-.54.18-1.4-.58-2.12-.91.44-.67.77-1.78,1.35-2a61,61,0,0,1,6.06-1.09Z"/><path class="cls-1" d="M413.84,251.71l7.65-1.53c.14.59.29,1.17.43,1.76L414.37,254C414.19,253.24,414,252.48,413.84,251.71Z"/><path class="cls-1" d="M192.3,415.63c0-8.25-.2-16.5.17-24.73.08-1.66,2.15-3.5,3.73-4.67.55-.4,3.48.94,3.5,1.55.25,6.92.74,13.92-.13,20.74-.36,2.81-3.83,5.22-5.88,7.81Z"/><path class="cls-1" d="M157.56,432.11c0-7.83-.36-15,.23-22,.17-2,3.16-3.69,4.85-5.53,1,1.74,2.55,3.39,2.89,5.25.49,2.79-.26,5.8.22,8.59C166.9,425,163.26,428.64,157.56,432.11Z"/></g></g></svg>